# Blender 3.4.1
# www.blender.org
mtllib mainPlayer.mtl
o mainPlayer
v -0.688184 -0.206352 1.013840
v -0.745703 -0.194426 1.096874
v -0.755882 -0.194426 1.088807
v -0.713201 -0.202859 1.060039
v -0.740875 -0.201311 1.080326
v -0.758049 -0.194426 1.101996
v -0.727446 -0.202859 1.048749
v -0.745703 0.194426 1.096874
v -0.688184 0.206352 1.013840
v -0.755882 0.194426 1.088807
v -0.713201 0.202859 1.060039
v -0.740875 0.201311 1.080326
v -0.727446 0.202859 1.048749
v -0.758049 0.194426 1.101996
v 0.745703 -0.194426 1.096874
v 0.688184 -0.206352 1.013840
v 0.755882 -0.194426 1.088807
v 0.713201 -0.202859 1.060039
v 0.740875 -0.201311 1.080326
v 0.727446 -0.202859 1.048749
v 0.758049 -0.194426 1.101996
v 0.688184 0.206352 1.013840
v 0.745703 0.194426 1.096874
v 0.755882 0.194426 1.088807
v 0.713201 0.202859 1.060039
v 0.740875 0.201311 1.080326
v 0.758049 0.194426 1.101996
v 0.727446 0.202859 1.048749
v -0.012430 -0.194426 -0.474643
v 0.012430 -0.194426 -0.474643
v 0.000000 -0.206352 -0.433383
v 0.000000 -0.194426 -0.488602
v 0.000000 -0.201311 -0.475492
v 0.008789 -0.202859 -0.459427
v -0.008789 -0.202859 -0.459427
v 0.012430 0.194426 -0.474643
v -0.012430 0.194426 -0.474643
v -0.000000 0.206352 -0.433383
v -0.000000 0.194426 -0.488602
v -0.000000 0.201311 -0.475492
v -0.008789 0.202859 -0.459427
v 0.008789 0.202859 -0.459427
v -0.022608 -0.194426 0.518854
v 0.000000 -0.206352 0.463728
v 0.022608 -0.194426 0.518854
v -0.007561 -0.202859 0.495973
v 0.000000 -0.201311 0.500941
v 0.007561 -0.202859 0.495973
v 0.000000 -0.194426 0.511369
v 0.022608 0.194426 0.518854
v -0.000000 0.206352 0.463728
v -0.022608 0.194426 0.518854
v 0.007561 0.202859 0.495973
v -0.000000 0.201311 0.500941
v -0.007561 0.202859 0.495973
v -0.000000 0.194426 0.511369
vn 0.0250 -0.9993 0.0276
vn -0.0000 -0.9993 0.0370
vn -0.0000 -0.9976 -0.0687
vn -0.0250 -0.9993 0.0276
vn -0.0000 0.9993 0.0370
vn -0.0000 0.9976 -0.0687
vn -0.0250 0.9993 0.0276
vn -0.4126 -0.5862 0.6973
vn -0.4126 0.5862 0.6973
vn -0.4306 0.5186 0.7387
vn -0.4306 -0.5186 0.7387
vn 0.0250 0.9993 0.0276
vn 0.7216 -0.4992 -0.4797
vn 0.7216 0.4992 -0.4797
vn 0.7711 0.5890 -0.2417
vn 0.7711 -0.5890 -0.2417
vn 0.4306 -0.5186 0.7387
vn 0.4306 0.5186 0.7387
vn 0.4126 0.5862 0.6973
vn 0.4126 -0.5862 0.6973
vn 0.1436 -0.9597 0.2417
vn -0.1186 -0.9816 0.1496
vn -0.2625 -0.9614 -0.0826
vn -0.4293 -0.7228 0.5416
vn -0.7711 -0.5890 -0.2417
vn 0.1436 0.9597 0.2417
vn -0.1186 0.9816 0.1496
vn -0.4292 0.7228 0.5416
vn -0.2625 0.9614 -0.0826
vn -0.7711 0.5890 -0.2417
vn -0.1436 -0.9597 0.2417
vn 0.1186 -0.9816 0.1496
vn 0.4292 -0.7228 0.5416
vn 0.2625 -0.9614 -0.0826
vn -0.1436 0.9597 0.2417
vn 0.1186 0.9816 0.1496
vn 0.2625 0.9614 -0.0826
vn 0.4293 0.7228 0.5416
vn -0.7216 -0.4992 -0.4797
vn -0.0000 -0.6148 -0.7887
vn -0.0000 -0.9398 -0.3417
vn -0.2404 -0.9514 -0.1927
vn 0.2404 -0.9514 -0.1927
vn -0.0000 0.6148 -0.7887
vn -0.0000 0.9398 -0.3417
vn 0.2404 0.9514 -0.1927
vn -0.7216 0.4992 -0.4797
vn -0.2404 0.9514 -0.1927
vn 0.0899 -0.9714 0.2198
vn -0.0000 -0.9397 0.3420
vn -0.0000 -0.6845 0.7290
vn -0.0899 -0.9714 0.2198
vn -0.0899 0.9714 0.2198
vn -0.0000 0.9397 0.3420
vn -0.0000 0.6845 0.7290
vn 0.0899 0.9714 0.2198
vt 0.141823 0.736964
vt 0.382225 0.746322
vt 0.536117 0.650573
vt 0.382225 0.002022
vt 0.885275 0.628286
vt 0.375000 0.740173
vt 0.144655 0.740173
vt 0.552886 0.642327
vt 0.135941 0.744529
vt 0.378053 0.750000
vt 0.375000 0.003008
vt 0.382225 0.750000
vt 0.382225 0.000000
vt 0.531430 0.650598
vt 0.885122 0.632988
vt 0.125000 0.744597
vt 0.375000 0.005403
vt 0.537718 0.973231
vt 0.511952 0.523405
vt 0.553541 0.617541
vt 0.521032 0.540390
vt 0.553725 0.981919
vt 0.541856 0.980199
vt 0.531431 0.548089
vt 0.546583 0.613094
vt 0.526385 0.536175
vt 0.545239 0.600981
vt 0.533162 0.973458
vt 0.553166 0.622204
vt 0.382225 0.503678
vt 0.004544 0.891530
vt 0.365751 0.513036
vt 0.985623 0.003695
vt 0.382225 0.247978
vt 0.375000 0.509827
vt 0.021427 0.900276
vt 0.375000 0.505471
vt 0.368985 0.503008
vt 0.378053 0.250000
vt 0.364194 0.505403
vt 0.375000 0.244597
vt 0.382225 0.500000
vt 0.382225 0.250000
vt 0.000000 0.891377
vt 0.983148 0.000195
vt 0.018333 0.467533
vt 0.018883 0.523906
vt 0.015256 0.570897
vt 0.617775 0.247978
vt 0.738513 0.178450
vt 0.009898 0.540698
vt 0.031201 0.562500
vt 0.000000 0.548089
vt 0.019463 0.564046
vt 0.734899 0.185249
vt 0.010737 0.570586
vt 0.736038 0.174950
vt 0.004771 0.536694
vt 0.005038 0.478718
vt 0.739058 0.195509
vt 0.382225 0.122978
vt 0.885275 0.000000
vt 0.382225 0.127022
vt 0.141823 0.625000
vt 0.382225 0.125000
vt 0.378053 0.125000
vt 0.375000 0.126596
vt 0.125000 0.626596
vt 0.143540 0.622127
vt 0.130746 0.622127
vt 0.375000 0.127873
vt 0.125000 0.627873
vt 0.375000 0.122127
vt 0.985623 0.675670
vt 0.617775 0.127022
vt 0.732600 0.005877
vt 0.617775 0.122978
vt 0.539395 0.003051
vt 0.241538 0.014810
vt 0.275817 0.009518
vt 0.734509 0.000195
vt 0.617775 0.125000
vt 0.621947 0.125000
vt 0.727779 0.001245
vt 0.241538 0.000195
vt 0.724342 0.006158
vt 0.244549 0.005847
vt 0.279658 0.000000
vt 0.531431 0.007562
vt 0.625000 0.127873
vt 0.238527 0.005847
vt 0.977365 0.675413
vt 0.871155 0.641416
vt 0.365751 0.625000
vt 0.344568 0.908068
vt 0.375905 0.625369
vt 0.374262 0.625369
vt 0.880122 0.632988
vt 0.882033 0.635752
vt 0.376018 0.625000
vt 0.355279 0.913926
vt 0.375000 0.624631
vt 0.353319 0.916681
vt 0.879842 0.642144
vt 0.353162 0.907465
vt 0.344497 0.556574
vt 0.270004 0.332999
vt 0.871441 0.991446
vt 0.267239 0.345021
vt 0.353336 0.548088
vt 0.355279 0.550825
vt 0.269916 0.347248
vt 0.882033 0.997280
vt 0.272615 0.345048
vt 0.880077 1.000000
vt 0.879966 0.990868
vt 0.353171 0.557237
s 1
usemtl playerShader
f 16/32/1 44/94/2 31/64/3
f 31/64/3 44/94/2 1/1/4
f 51/107/5 38/80/6 9/19/7
f 15/31/8 23/48/9 50/106/10 45/95/11
f 22/47/12 38/80/6 51/107/5
f 30/63/13 36/75/14 24/49/15 17/34/16
f 43/93/17 52/108/18 8/18/19 2/3/20
f 1/1/4 4/7/21 5/9/22 7/16/23
f 2/2/20 6/12/24 5/10/22 4/6/21
f 3/4/25 7/17/23 5/11/22 6/13/24
f 8/18/19 11/22/26 12/23/27 14/28/28
f 9/19/7 13/26/29 12/24/27 11/21/26
f 10/20/30 14/29/28 12/25/27 13/27/29
f 15/30/8 18/35/31 19/37/32 21/42/33
f 16/32/1 20/40/34 19/38/32 18/35/31
f 17/34/16 21/43/33 19/39/32 20/41/34
f 22/47/12 25/51/35 26/53/36 28/58/37
f 23/48/9 27/56/38 26/54/36 25/52/35
f 24/50/15 28/60/37 26/55/36 27/57/38
f 29/61/39 32/65/40 33/66/41 35/73/42
f 30/63/13 34/71/43 33/67/41 32/65/40
f 31/64/3 35/72/42 33/68/41 34/69/43
f 36/75/14 39/82/44 40/83/45 42/90/46
f 37/76/47 41/86/48 40/84/45 39/81/44
f 38/79/6 42/91/46 40/85/45 41/87/48
f 43/93/17 46/98/49 47/99/50 49/104/51
f 44/94/2 48/102/52 47/100/50 46/96/49
f 45/95/11 49/105/51 47/101/50 48/103/52
f 50/106/10 53/110/53 54/111/54 56/117/55
f 51/107/5 55/114/56 54/112/54 53/109/53
f 52/108/18 56/116/55 54/113/54 55/115/56
f 31/64/3 1/1/4 7/16/23 35/72/42
f 35/73/42 7/17/23 3/4/25 29/61/39
f 2/3/20 8/18/19 14/28/28 6/14/24
f 6/15/24 14/29/28 10/20/30 3/5/25
f 38/79/6 22/46/12 28/59/37 42/91/46
f 42/92/46 28/60/37 24/50/15 36/74/14
f 23/48/9 15/31/8 21/44/33 27/56/38
f 27/57/38 21/45/33 17/33/16 24/50/15
f 1/1/4 44/94/2 46/97/49 4/7/21
f 4/8/21 46/98/49 43/93/17 2/3/20
f 16/32/1 31/64/3 34/70/43 20/40/34
f 20/41/34 34/71/43 30/63/13 17/34/16
f 9/19/7 38/80/6 41/88/48 13/26/29
f 13/27/29 41/89/48 37/78/47 10/20/30
f 22/47/12 51/107/5 53/109/53 25/51/35
f 25/52/35 53/110/53 50/106/10 23/48/9
f 44/94/2 16/32/1 18/35/31 48/102/52
f 48/103/52 18/36/31 15/31/8 45/95/11
f 52/108/18 43/93/17 49/104/51 56/116/55
f 56/117/55 49/105/51 45/95/11 50/106/10
f 36/75/14 30/63/13 32/65/40 39/82/44
f 39/82/44 32/65/40 29/61/39 37/77/47
f 51/107/5 9/19/7 11/21/26 55/114/56
f 55/115/56 11/22/26 8/18/19 52/108/18
f 3/5/25 10/20/30 37/78/47 29/62/39
